#define eye2_width 4
#define eye2_height 4
static unsigned char eye2_bits[] = {
   0x0f, 0x09, 0x06, 0x0f };
